<?xml version="1.0" encoding="UTF-8"?>
<!DOCTYPE svg PUBLIC "-//W3C//DTD SVG 1.1//EN" "http://www.w3.org/Graphics/SVG/1.1/DTD/svg11.dtd">
<svg xmlns="http://www.w3.org/2000/svg" version="1.1" width="512px" height="512px" style="shape-rendering:geometricPrecision; text-rendering:geometricPrecision; image-rendering:optimizeQuality; fill-rule:evenodd; clip-rule:evenodd" xmlns:xlink="http://www.w3.org/1999/xlink">
<g><path style="opacity:0.997" fill="#ebd572" d="M 233.5,-0.5 C 247.833,-0.5 262.167,-0.5 276.5,-0.5C 367.96,9.83237 436.46,54.8324 482,134.5C 498.217,165.723 508.05,198.723 511.5,233.5C 511.5,248.167 511.5,262.833 511.5,277.5C 501.775,363.01 460.775,428.843 388.5,475C 378.423,480.705 368.09,485.872 357.5,490.5C 357.808,484.575 357.475,478.741 356.5,473C 357.729,471.471 359.229,470.304 361,469.5C 361.167,467.167 361.333,464.833 361.5,462.5C 360.692,453.581 359.359,444.747 357.5,436C 357.439,434.289 358.106,432.956 359.5,432C 364.45,431.767 365.95,429.6 364,425.5C 360.175,422.376 356.675,418.876 353.5,415C 348.904,412.016 345.07,408.183 342,403.5C 341.07,398.201 340.403,392.867 340,387.5C 337.997,382.404 334.497,379.071 329.5,377.5C 319.515,366.542 312.349,353.876 308,339.5C 306.317,332.288 304.15,325.288 301.5,318.5C 303.253,315.995 304.753,313.329 306,310.5C 306.837,308.993 308.004,308.493 309.5,309C 320.921,320.421 332.421,331.921 344,343.5C 349.649,353.408 358.149,357.574 369.5,356C 371.705,353.46 374.205,351.293 377,349.5C 377.911,346.689 378.744,343.856 379.5,341C 376.328,324.13 373.494,306.963 371,289.5C 370.899,286.127 369.399,283.627 366.5,282C 367.988,280.283 369.821,279.116 372,278.5C 372.76,270.377 372.093,262.377 370,254.5C 368.59,253.213 367.09,252.046 365.5,251C 368.335,246.828 371.502,243.661 375,241.5C 377.549,236.568 378.049,231.735 376.5,227C 381.668,224.723 386.502,221.89 391,218.5C 391.561,216.275 392.561,214.275 394,212.5C 394.667,209.833 394.667,207.167 394,204.5C 391.747,201.905 389.58,202.072 387.5,205C 383.03,207.087 378.697,206.921 374.5,204.5C 363.562,186.941 352.395,169.608 341,152.5C 339.622,150.787 337.955,149.453 336,148.5C 330.362,140.201 324.028,132.534 317,125.5C 315.33,118.991 313.164,112.658 310.5,106.5C 315.457,104.329 319.79,101.162 323.5,97C 327.112,95.8605 330.446,94.1939 333.5,92C 342.282,84.2243 349.949,75.5576 356.5,66C 352.941,63.4343 348.941,61.7677 344.5,61C 335.447,60.154 326.447,60.4873 317.5,62C 310.187,64.7375 303.021,67.9042 296,71.5C 290.966,75.3691 285.8,79.0358 280.5,82.5C 277.635,80.4735 274.635,78.6401 271.5,77C 268.189,77.2148 264.856,77.2148 261.5,77C 247.471,54.1387 227.137,40.472 200.5,36C 193.833,35.3333 187.167,35.3333 180.5,36C 179.167,36.6667 178.167,37.6667 177.5,39C 181.204,46.2409 185.037,53.4075 189,60.5C 196.369,67.0392 203.536,73.7059 210.5,80.5C 199.706,90.832 190.373,102.165 182.5,114.5C 180.837,116.438 180.171,118.772 180.5,121.5C 179.467,122.912 178.801,124.578 178.5,126.5C 179.342,129.53 179.842,132.53 180,135.5C 167.226,148.433 155.059,161.767 143.5,175.5C 138.874,177.477 134.207,179.477 129.5,181.5C 124.387,181.881 119.22,181.215 114,179.5C 112.941,179.63 112.108,180.13 111.5,181C 110.832,191.359 115.832,197.359 126.5,199C 127.357,199.689 128.023,200.522 128.5,201.5C 124.402,212.407 124.568,223.074 129,233.5C 128.311,234.357 127.478,235.023 126.5,235.5C 123.572,234.454 121.072,232.788 119,230.5C 118.758,224.116 118.092,217.782 117,211.5C 114.303,207.479 111.636,203.479 109,199.5C 106.061,196.491 103.728,196.824 102,200.5C 102.047,209.642 101.047,218.642 99,227.5C 96.4897,230.449 93.4897,231.116 90,229.5C 88.2894,229.439 86.956,230.106 86,231.5C 84.4268,238.571 82.5934,245.571 80.5,252.5C 82.3304,262.936 85.4971,273.269 90,283.5C 95.328,292.821 100.661,302.154 106,311.5C 110.12,314.625 113.12,318.625 115,323.5C 122.059,329.554 128.893,336.054 135.5,343C 139.756,344.92 143.089,347.92 145.5,352C 151.858,357.031 158.191,362.031 164.5,367C 166.5,367.667 168.5,367.667 170.5,367C 179.049,358.953 187.049,350.453 194.5,341.5C 200.347,331.808 205.68,321.808 210.5,311.5C 212.07,311.306 213.57,311.306 215,311.5C 217.825,315.685 220.825,319.685 224,323.5C 224.715,330.986 227.382,337.652 232,343.5C 233.167,347 234.333,350.5 235.5,354C 235.241,355.261 234.574,356.261 233.5,357C 225.916,358.079 219.082,360.246 213,363.5C 212.691,364.766 212.191,365.933 211.5,367C 206.601,368.485 202.268,370.985 198.5,374.5C 193.175,382.915 191.175,391.915 192.5,401.5C 191.21,402.058 190.377,403.058 190,404.5C 189.833,407.167 189.667,409.833 189.5,412.5C 189.337,416.777 190.003,420.777 191.5,424.5C 191.41,427.152 192.076,429.485 193.5,431.5C 193.41,434.152 194.076,436.485 195.5,438.5C 198.286,445.13 202.12,451.13 207,456.5C 209.751,460.334 212.251,464.334 214.5,468.5C 210.944,481.014 207.944,493.68 205.5,506.5C 118.092,487.375 55.925,437.041 19,355.5C 8.70393,330.316 2.20393,304.316 -0.5,277.5C -0.5,262.833 -0.5,248.167 -0.5,233.5C 11.9842,133.193 63.9842,61.693 155.5,19C 180.733,8.86011 206.733,2.36011 233.5,-0.5 Z"/></g>
<g><path style="opacity:0.999" fill="#fefefe" d="M 357.5,490.5 C 337.841,499.586 317.175,505.586 295.5,508.5C 295.832,497.147 295.499,485.814 294.5,474.5C 293.139,472.972 291.972,471.305 291,469.5C 289.184,470.329 287.351,471.163 285.5,472C 283.707,474.795 281.54,477.295 279,479.5C 275.924,490.225 272.757,500.892 269.5,511.5C 258.167,511.5 246.833,511.5 235.5,511.5C 225.401,510.487 215.401,508.821 205.5,506.5C 207.944,493.68 210.944,481.014 214.5,468.5C 212.251,464.334 209.751,460.334 207,456.5C 202.12,451.13 198.286,445.13 195.5,438.5C 195.59,435.848 194.924,433.515 193.5,431.5C 192.076,429.485 191.41,427.152 191.5,424.5C 189.864,416.687 190.197,409.021 192.5,401.5C 191.175,391.915 193.175,382.915 198.5,374.5C 202.268,370.985 206.601,368.485 211.5,367C 212.191,365.933 212.691,364.766 213,363.5C 219.082,360.246 225.916,358.079 233.5,357C 234.574,356.261 235.241,355.261 235.5,354C 234.333,350.5 233.167,347 232,343.5C 227.382,337.652 224.715,330.986 224,323.5C 220.825,319.685 217.825,315.685 215,311.5C 213.57,311.306 212.07,311.306 210.5,311.5C 205.68,321.808 200.347,331.808 194.5,341.5C 187.049,350.453 179.049,358.953 170.5,367C 168.5,367.667 166.5,367.667 164.5,367C 158.191,362.031 151.858,357.031 145.5,352C 143.089,347.92 139.756,344.92 135.5,343C 128.893,336.054 122.059,329.554 115,323.5C 113.12,318.625 110.12,314.625 106,311.5C 100.661,302.154 95.328,292.821 90,283.5C 85.4971,273.269 82.3304,262.936 80.5,252.5C 82.5934,245.571 84.4268,238.571 86,231.5C 86.956,230.106 88.2894,229.439 90,229.5C 93.4897,231.116 96.4897,230.449 99,227.5C 101.047,218.642 102.047,209.642 102,200.5C 103.728,196.824 106.061,196.491 109,199.5C 111.636,203.479 114.303,207.479 117,211.5C 118.092,217.782 118.758,224.116 119,230.5C 121.072,232.788 123.572,234.454 126.5,235.5C 127.478,235.023 128.311,234.357 129,233.5C 124.568,223.074 124.402,212.407 128.5,201.5C 128.023,200.522 127.357,199.689 126.5,199C 115.832,197.359 110.832,191.359 111.5,181C 112.108,180.13 112.941,179.63 114,179.5C 119.22,181.215 124.387,181.881 129.5,181.5C 134.207,179.477 138.874,177.477 143.5,175.5C 155.059,161.767 167.226,148.433 180,135.5C 179.842,132.53 179.342,129.53 178.5,126.5C 178.801,124.578 179.467,122.912 180.5,121.5C 181.612,119.401 182.279,117.067 182.5,114.5C 190.373,102.165 199.706,90.832 210.5,80.5C 203.536,73.7059 196.369,67.0392 189,60.5C 185.037,53.4075 181.204,46.2409 177.5,39C 178.167,37.6667 179.167,36.6667 180.5,36C 187.167,35.3333 193.833,35.3333 200.5,36C 227.137,40.472 247.471,54.1387 261.5,77C 264.856,77.2148 268.189,77.2148 271.5,77C 274.635,78.6401 277.635,80.4735 280.5,82.5C 285.8,79.0358 290.966,75.3691 296,71.5C 303.021,67.9042 310.187,64.7375 317.5,62C 326.447,60.4873 335.447,60.154 344.5,61C 348.941,61.7677 352.941,63.4343 356.5,66C 349.949,75.5576 342.282,84.2243 333.5,92C 330.446,94.1939 327.112,95.8605 323.5,97C 319.79,101.162 315.457,104.329 310.5,106.5C 313.164,112.658 315.33,118.991 317,125.5C 324.028,132.534 330.362,140.201 336,148.5C 337.955,149.453 339.622,150.787 341,152.5C 352.395,169.608 363.562,186.941 374.5,204.5C 378.697,206.921 383.03,207.087 387.5,205C 389.58,202.072 391.747,201.905 394,204.5C 394.667,207.167 394.667,209.833 394,212.5C 392.561,214.275 391.561,216.275 391,218.5C 386.502,221.89 381.668,224.723 376.5,227C 378.049,231.735 377.549,236.568 375,241.5C 371.502,243.661 368.335,246.828 365.5,251C 367.09,252.046 368.59,253.213 370,254.5C 372.093,262.377 372.76,270.377 372,278.5C 369.821,279.116 367.988,280.283 366.5,282C 369.399,283.627 370.899,286.127 371,289.5C 373.494,306.963 376.328,324.13 379.5,341C 378.744,343.856 377.911,346.689 377,349.5C 374.205,351.293 371.705,353.46 369.5,356C 358.149,357.574 349.649,353.408 344,343.5C 332.421,331.921 320.921,320.421 309.5,309C 308.004,308.493 306.837,308.993 306,310.5C 304.753,313.329 303.253,315.995 301.5,318.5C 304.15,325.288 306.317,332.288 308,339.5C 312.349,353.876 319.515,366.542 329.5,377.5C 334.497,379.071 337.997,382.404 340,387.5C 340.403,392.867 341.07,398.201 342,403.5C 345.07,408.183 348.904,412.016 353.5,415C 356.675,418.876 360.175,422.376 364,425.5C 365.95,429.6 364.45,431.767 359.5,432C 358.106,432.956 357.439,434.289 357.5,436C 359.359,444.747 360.692,453.581 361.5,462.5C 361.333,464.833 361.167,467.167 361,469.5C 359.229,470.304 357.729,471.471 356.5,473C 357.475,478.741 357.808,484.575 357.5,490.5 Z"/></g>
<g><path style="opacity:1" fill="#f4e7b0" d="M 182.5,114.5 C 182.279,117.067 181.612,119.401 180.5,121.5C 180.171,118.772 180.837,116.438 182.5,114.5 Z"/></g>
<g><path style="opacity:1" fill="#ebd676" d="M 313.5,218.5 C 312.22,217.069 310.553,216.402 308.5,216.5C 304.343,216.428 300.009,215.761 295.5,214.5C 301.629,202.733 306.295,190.733 309.5,178.5C 310.814,179.313 311.981,180.313 313,181.5C 318.048,192.083 322.881,202.583 327.5,213C 327.345,216.327 325.845,217.16 323,215.5C 321.522,216.978 320.022,218.478 318.5,220C 316.465,220.599 314.799,220.099 313.5,218.5 Z"/></g>
<g><path style="opacity:1" fill="#ebd574" d="M 161.5,249.5 C 164.152,249.59 166.485,248.924 168.5,247.5C 173.985,246.673 179.652,246.173 185.5,246C 187.227,244.611 188.561,242.944 189.5,241C 180.719,231.923 177.219,221.09 179,208.5C 181.039,203.987 182.706,199.32 184,194.5C 187.15,198.617 190.65,202.451 194.5,206C 190.768,205.812 187.934,207.312 186,210.5C 186.745,214.965 188.912,218.799 192.5,222C 196.893,226.572 202.226,229.072 208.5,229.5C 210.617,237.121 215.451,239.788 223,237.5C 224.978,235.522 226.978,233.522 229,231.5C 228.683,234.746 228.517,238.08 228.5,241.5C 220.114,241.213 211.781,241.713 203.5,243C 200.125,246.764 196.292,249.931 192,252.5C 188.072,263.287 184.739,274.287 182,285.5C 177.243,296.69 172.409,307.856 167.5,319C 165.808,321.274 163.808,323.107 161.5,324.5C 156.983,321.496 152.316,318.663 147.5,316C 140.279,308.779 133.113,301.613 126,294.5C 122.847,285.719 124.847,278.053 132,271.5C 133.837,268.27 133.671,265.27 131.5,262.5C 132.727,259.105 135.06,256.939 138.5,256C 140.788,253.257 142.955,250.423 145,247.5C 146.171,248.893 147.671,249.727 149.5,250C 153.689,250.812 157.689,250.645 161.5,249.5 Z"/></g>
<g><path style="opacity:1" fill="#f5eabb" d="M 308.5,216.5 C 310.553,216.402 312.22,217.069 313.5,218.5C 311.447,218.598 309.78,217.931 308.5,216.5 Z"/></g>
<g><path style="opacity:1" fill="#ecd87e" d="M 261.5,233.5 C 264.084,233.569 266.084,234.735 267.5,237C 264.851,237.452 262.351,238.286 260,239.5C 259.257,237.126 259.757,235.126 261.5,233.5 Z"/></g>
<g><path style="opacity:1" fill="#f6ebbe" d="M 168.5,247.5 C 166.485,248.924 164.152,249.59 161.5,249.5C 163.515,248.076 165.848,247.41 168.5,247.5 Z"/></g>
<g><path style="opacity:1" fill="#edd982" d="M 323.5,262.5 C 325.039,268.348 326.539,274.348 328,280.5C 330.964,284.466 334.297,288.133 338,291.5C 338.273,293.101 338.773,294.601 339.5,296C 339.167,296.167 338.833,296.333 338.5,296.5C 333.55,290.048 328.05,284.048 322,278.5C 320.819,274.637 318.986,271.137 316.5,268C 319.595,267.065 321.929,265.231 323.5,262.5 Z"/></g>
<g><path style="opacity:1" fill="#faf4dc" d="M 192.5,401.5 C 190.197,409.021 189.864,416.687 191.5,424.5C 190.003,420.777 189.337,416.777 189.5,412.5C 189.667,409.833 189.833,407.167 190,404.5C 190.377,403.058 191.21,402.058 192.5,401.5 Z"/></g>
<g><path style="opacity:1" fill="#f6ebbd" d="M 193.5,431.5 C 194.924,433.515 195.59,435.848 195.5,438.5C 194.076,436.485 193.41,434.152 193.5,431.5 Z"/></g>
<g><path style="opacity:0.992" fill="#ebd676" d="M 295.5,508.5 C 288.753,509.623 282.086,510.623 275.5,511.5C 273.5,511.5 271.5,511.5 269.5,511.5C 272.757,500.892 275.924,490.225 279,479.5C 281.54,477.295 283.707,474.795 285.5,472C 287.351,471.163 289.184,470.329 291,469.5C 291.972,471.305 293.139,472.972 294.5,474.5C 295.499,485.814 295.832,497.147 295.5,508.5 Z"/></g>
</svg>
