<?xml version="1.0" encoding="UTF-8"?>
<!DOCTYPE svg PUBLIC "-//W3C//DTD SVG 1.1//EN" "http://www.w3.org/Graphics/SVG/1.1/DTD/svg11.dtd">
<svg xmlns="http://www.w3.org/2000/svg" version="1.1" width="512px" height="512px" style="shape-rendering:geometricPrecision; text-rendering:geometricPrecision; image-rendering:optimizeQuality; fill-rule:evenodd; clip-rule:evenodd" xmlns:xlink="http://www.w3.org/1999/xlink">
<g><path style="opacity:0.997" fill="#c7695d" d="M 233.5,-0.5 C 247.833,-0.5 262.167,-0.5 276.5,-0.5C 367.96,9.83237 436.46,54.8324 482,134.5C 498.217,165.723 508.05,198.723 511.5,233.5C 511.5,248.167 511.5,262.833 511.5,277.5C 504.499,345.335 475.833,402.168 425.5,448C 417.34,455.239 408.674,461.739 399.5,467.5C 398.947,462.518 398.613,457.518 398.5,452.5C 400.32,438.739 401.32,424.906 401.5,411C 401.489,399.036 400.489,387.202 398.5,375.5C 399.93,375.421 401.264,375.754 402.5,376.5C 410.715,374.384 418.381,371.218 425.5,367C 429.548,365.958 433.548,365.624 437.5,366C 439.325,364.534 439.825,362.701 439,360.5C 437.468,358.438 435.468,357.104 433,356.5C 432.79,354.942 432.29,353.609 431.5,352.5C 431.073,349.99 430.407,347.657 429.5,345.5C 426.353,330.845 419.853,317.845 410,306.5C 406.038,297.244 401.038,288.577 395,280.5C 394.64,278.392 393.973,276.392 393,274.5C 385.945,265.772 380.112,256.272 375.5,246C 376.025,245.308 376.692,244.808 377.5,244.5C 384.329,246.836 390.996,249.669 397.5,253C 404.256,254.051 410.59,256.217 416.5,259.5C 418.912,259.594 420.745,258.594 422,256.5C 424.124,251.337 425.624,246.004 426.5,240.5C 434.828,243.914 439.495,241.248 440.5,232.5C 440.254,223.558 438.754,214.891 436,206.5C 429.451,195.739 424.284,184.406 420.5,172.5C 419.949,169.193 419.616,165.86 419.5,162.5C 420.006,158.317 421.172,154.317 423,150.5C 423.667,148.167 423.667,145.833 423,143.5C 420.676,140.177 418.009,137.177 415,134.5C 414.249,130.734 412.249,127.734 409,125.5C 406.697,118.861 402.531,113.694 396.5,110C 390.678,109.763 385.011,110.429 379.5,112C 386.066,101.508 388.566,89.6746 387,76.5C 386,74.8333 385,73.1667 384,71.5C 375.73,62.1947 366.063,55.8613 355,52.5C 352.575,50.1866 349.742,48.5199 346.5,47.5C 323.352,38.6802 300.018,38.1802 276.5,46C 271.251,49.2205 266.417,53.0538 262,57.5C 257.072,73.4726 256.238,89.6392 259.5,106C 255.992,107.672 252.492,109.505 249,111.5C 249.792,113.478 251.292,115.145 253.5,116.5C 250.739,118.495 248.072,120.495 245.5,122.5C 249.36,128.037 254.36,132.037 260.5,134.5C 258.374,135.126 256.707,136.459 255.5,138.5C 256.283,140.288 257.616,141.288 259.5,141.5C 262.169,143.999 265.002,146.332 268,148.5C 268.004,150.368 267.504,152.202 266.5,154C 267.515,157.521 269.182,160.688 271.5,163.5C 267.055,164.421 262.388,164.587 257.5,164C 252.893,165.389 248.56,167.223 244.5,169.5C 233.283,166.516 221.949,164.183 210.5,162.5C 206.383,162.647 203.05,164.314 200.5,167.5C 195.366,164.523 190.533,161.19 186,157.5C 175.787,155.058 165.62,152.725 155.5,150.5C 155.649,149.448 155.483,148.448 155,147.5C 151.94,145.942 149.774,143.609 148.5,140.5C 148.7,135.151 150.034,130.151 152.5,125.5C 158.217,123.878 163.05,120.878 167,116.5C 167.353,111.505 165.186,108.005 160.5,106C 155.55,105.237 150.883,106.071 146.5,108.5C 145.469,109.7 144.635,111.034 144,112.5C 143.282,111.549 142.449,111.383 141.5,112C 139.383,116.303 136.05,118.803 131.5,119.5C 131.822,117.278 131.155,115.444 129.5,114C 123.193,111.016 118.193,106.683 114.5,101C 102.126,91.4425 90.4595,80.9425 79.5,69.5C 111.22,39.1273 148.554,18.2939 191.5,7C 205.494,3.6315 219.494,1.1315 233.5,-0.5 Z"/></g>
<g><path style="opacity:0.999" fill="#fefefe" d="M 419.5,162.5 C 418.135,165.959 418.469,169.292 420.5,172.5C 424.284,184.406 429.451,195.739 436,206.5C 438.754,214.891 440.254,223.558 440.5,232.5C 439.495,241.248 434.828,243.914 426.5,240.5C 425.624,246.004 424.124,251.337 422,256.5C 420.745,258.594 418.912,259.594 416.5,259.5C 410.59,256.217 404.256,254.051 397.5,253C 390.996,249.669 384.329,246.836 377.5,244.5C 376.692,244.808 376.025,245.308 375.5,246C 380.112,256.272 385.945,265.772 393,274.5C 393.973,276.392 394.64,278.392 395,280.5C 401.038,288.577 406.038,297.244 410,306.5C 419.853,317.845 426.353,330.845 429.5,345.5C 429.338,347.527 429.505,349.527 430,351.5C 430.383,352.056 430.883,352.389 431.5,352.5C 432.29,353.609 432.79,354.942 433,356.5C 435.468,357.104 437.468,358.438 439,360.5C 439.825,362.701 439.325,364.534 437.5,366C 433.548,365.624 429.548,365.958 425.5,367C 418.381,371.218 410.715,374.384 402.5,376.5C 401.264,375.754 399.93,375.421 398.5,375.5C 400.489,387.202 401.489,399.036 401.5,411C 401.32,424.906 400.32,438.739 398.5,452.5C 397.534,457.67 397.534,463.003 398.5,468.5C 377.847,481.826 355.847,492.493 332.5,500.5C 334.203,495.899 336.203,491.399 338.5,487C 336.981,483.458 337.314,480.125 339.5,477C 338.406,468.23 337.406,459.397 336.5,450.5C 336.63,448.625 336.963,446.792 337.5,445C 337.37,443.941 336.87,443.108 336,442.5C 335.567,428.036 334.067,413.703 331.5,399.5C 333.062,397.099 332.729,395.099 330.5,393.5C 326.319,401.356 321.986,409.189 317.5,417C 317.957,417.414 318.291,417.914 318.5,418.5C 310.536,437.55 301.702,456.217 292,474.5C 287.5,476.333 284.333,479.5 282.5,484C 279.08,485.746 275.913,487.913 273,490.5C 270.455,497.303 268.622,504.303 267.5,511.5C 256.833,511.5 246.167,511.5 235.5,511.5C 222.088,510.22 208.755,507.887 195.5,504.5C 196.928,501.334 199.095,498.668 202,496.5C 204.368,491.53 206.201,486.364 207.5,481C 212.237,474.987 217.07,469.154 222,463.5C 223.802,455.09 226.968,447.257 231.5,440C 231.265,439.127 230.931,438.293 230.5,437.5C 235.11,422.503 240.61,407.836 247,393.5C 251.787,385.488 255.621,376.988 258.5,368C 259.799,366.674 261.132,365.34 262.5,364C 262.173,361.315 262.173,358.482 262.5,355.5C 258.161,354.005 254.827,351.171 252.5,347C 248.333,345.5 245.5,342.667 244,338.5C 238.274,333.77 232.941,328.77 228,323.5C 223.363,325.806 219.696,329.139 217,333.5C 209.605,343.642 202.938,354.308 197,365.5C 194.982,367.35 193.149,369.35 191.5,371.5C 189.926,372.631 188.259,372.798 186.5,372C 174.757,359.406 169.424,344.406 170.5,327C 170.674,317.144 172.507,307.644 176,298.5C 180.699,291.81 185.366,285.143 190,278.5C 204.667,264.5 219.333,250.5 234,236.5C 236.991,231.596 240.491,227.096 244.5,223C 243.737,222.056 242.737,221.556 241.5,221.5C 223.778,223.814 206.278,227.147 189,231.5C 186.747,231.369 184.581,230.869 182.5,230C 180.71,227.509 178.543,225.342 176,223.5C 175.308,218.109 175.641,212.775 177,207.5C 180.713,203.948 182.213,199.782 181.5,195C 178.339,193.587 175.339,191.92 172.5,190C 168.531,186.704 164.531,183.371 160.5,180C 159.167,180 157.833,180 156.5,180C 155.743,178.488 154.743,177.154 153.5,176C 145.845,172.174 138.511,167.84 131.5,163C 128.868,162.551 126.368,161.717 124,160.5C 119.645,162.317 115.145,162.817 110.5,162C 102.532,160.332 94.5319,158.666 86.5,157C 84.4164,155.499 83.0831,153.499 82.5,151C 84.2037,144.888 85.7037,138.721 87,132.5C 88.1545,131.257 89.4878,130.257 91,129.5C 91.413,126.768 92.0797,124.101 93,121.5C 94.4443,119.845 96.2776,119.178 98.5,119.5C 98.7792,116.882 99.4459,114.382 100.5,112C 92.4369,105.392 84.9369,98.2254 78,90.5C 76.7101,88.208 75.0435,86.208 73,84.5C 72.023,82.26 71.523,79.9267 71.5,77.5C 73.8333,74.5 76.5,71.8333 79.5,69.5C 90.4595,80.9425 102.126,91.4425 114.5,101C 118.193,106.683 123.193,111.016 129.5,114C 131.155,115.444 131.822,117.278 131.5,119.5C 136.05,118.803 139.383,116.303 141.5,112C 142.449,111.383 143.282,111.549 144,112.5C 144.635,111.034 145.469,109.7 146.5,108.5C 150.883,106.071 155.55,105.237 160.5,106C 165.186,108.005 167.353,111.505 167,116.5C 163.05,120.878 158.217,123.878 152.5,125.5C 150.034,130.151 148.7,135.151 148.5,140.5C 149.774,143.609 151.94,145.942 155,147.5C 155.483,148.448 155.649,149.448 155.5,150.5C 165.62,152.725 175.787,155.058 186,157.5C 190.533,161.19 195.366,164.523 200.5,167.5C 203.05,164.314 206.383,162.647 210.5,162.5C 221.949,164.183 233.283,166.516 244.5,169.5C 248.56,167.223 252.893,165.389 257.5,164C 262.388,164.587 267.055,164.421 271.5,163.5C 269.182,160.688 267.515,157.521 266.5,154C 267.504,152.202 268.004,150.368 268,148.5C 265.002,146.332 262.169,143.999 259.5,141.5C 256.63,138.543 257.297,136.543 261.5,135.5C 261.376,134.893 261.043,134.56 260.5,134.5C 254.36,132.037 249.36,128.037 245.5,122.5C 248.072,120.495 250.739,118.495 253.5,116.5C 251.292,115.145 249.792,113.478 249,111.5C 252.492,109.505 255.992,107.672 259.5,106C 256.238,89.6392 257.072,73.4726 262,57.5C 266.417,53.0538 271.251,49.2205 276.5,46C 300.018,38.1802 323.352,38.6802 346.5,47.5C 349.742,48.5199 352.575,50.1866 355,52.5C 366.063,55.8613 375.73,62.1947 384,71.5C 385,73.1667 386,74.8333 387,76.5C 388.566,89.6746 386.066,101.508 379.5,112C 385.011,110.429 390.678,109.763 396.5,110C 402.531,113.694 406.697,118.861 409,125.5C 412.249,127.734 414.249,130.734 415,134.5C 418.009,137.177 420.676,140.177 423,143.5C 423.667,145.833 423.667,148.167 423,150.5C 421.172,154.317 420.006,158.317 419.5,162.5 Z"/></g>
<g><path style="opacity:0.998" fill="#c7695d" d="M 71.5,77.5 C 71.523,79.9267 72.023,82.26 73,84.5C 75.0435,86.208 76.7101,88.208 78,90.5C 84.9369,98.2254 92.4369,105.392 100.5,112C 99.4459,114.382 98.7792,116.882 98.5,119.5C 96.2776,119.178 94.4443,119.845 93,121.5C 92.0797,124.101 91.413,126.768 91,129.5C 89.4878,130.257 88.1545,131.257 87,132.5C 85.7037,138.721 84.2037,144.888 82.5,151C 83.0831,153.499 84.4164,155.499 86.5,157C 94.5319,158.666 102.532,160.332 110.5,162C 115.145,162.817 119.645,162.317 124,160.5C 126.368,161.717 128.868,162.551 131.5,163C 138.511,167.84 145.845,172.174 153.5,176C 154.743,177.154 155.743,178.488 156.5,180C 157.833,180 159.167,180 160.5,180C 164.531,183.371 168.531,186.704 172.5,190C 175.339,191.92 178.339,193.587 181.5,195C 182.213,199.782 180.713,203.948 177,207.5C 175.641,212.775 175.308,218.109 176,223.5C 178.543,225.342 180.71,227.509 182.5,230C 184.581,230.869 186.747,231.369 189,231.5C 206.278,227.147 223.778,223.814 241.5,221.5C 242.737,221.556 243.737,222.056 244.5,223C 240.491,227.096 236.991,231.596 234,236.5C 219.333,250.5 204.667,264.5 190,278.5C 185.366,285.143 180.699,291.81 176,298.5C 172.507,307.644 170.674,317.144 170.5,327C 169.424,344.406 174.757,359.406 186.5,372C 188.259,372.798 189.926,372.631 191.5,371.5C 193.149,369.35 194.982,367.35 197,365.5C 202.938,354.308 209.605,343.642 217,333.5C 219.696,329.139 223.363,325.806 228,323.5C 232.941,328.77 238.274,333.77 244,338.5C 245.5,342.667 248.333,345.5 252.5,347C 254.827,351.171 258.161,354.005 262.5,355.5C 262.173,358.482 262.173,361.315 262.5,364C 261.132,365.34 259.799,366.674 258.5,368C 255.621,376.988 251.787,385.488 247,393.5C 240.61,407.836 235.11,422.503 230.5,437.5C 230.931,438.293 231.265,439.127 231.5,440C 226.968,447.257 223.802,455.09 222,463.5C 217.07,469.154 212.237,474.987 207.5,481C 206.201,486.364 204.368,491.53 202,496.5C 199.095,498.668 196.928,501.334 195.5,504.5C 113.038,482.875 54.2047,433.208 19,355.5C 8.70393,330.316 2.20393,304.316 -0.5,277.5C -0.5,262.833 -0.5,248.167 -0.5,233.5C 5.06311,177.384 26.2298,128.05 63,85.5C 65.7028,82.6286 68.5361,79.9619 71.5,77.5 Z"/></g>
<g><path style="opacity:1" fill="#c86b5f" d="M 368.5,136.5 C 371.989,137.477 374.823,139.477 377,142.5C 380.205,150.453 383.205,158.453 386,166.5C 389.713,169.526 393.713,172.193 398,174.5C 399.489,180.452 400.655,186.452 401.5,192.5C 398.927,192.148 396.594,192.648 394.5,194C 387.167,194.667 379.833,194.667 372.5,194C 367.058,188.847 360.725,185.181 353.5,183C 354.833,182.667 356.167,182.333 357.5,182C 362.134,177.347 367.468,173.68 373.5,171C 369.327,166.414 364.327,163.081 358.5,161C 356.201,158.465 356.201,155.798 358.5,153C 361.308,152.402 363.808,151.235 366,149.5C 365.778,147.544 364.945,145.71 363.5,144C 367.26,142.486 368.927,139.986 368.5,136.5 Z"/></g>
<g><path style="opacity:1" fill="#efd2ce" d="M 260.5,134.5 C 261.043,134.56 261.376,134.893 261.5,135.5C 257.297,136.543 256.63,138.543 259.5,141.5C 257.616,141.288 256.283,140.288 255.5,138.5C 256.707,136.459 258.374,135.126 260.5,134.5 Z"/></g>
<g><path style="opacity:1" fill="#da9c94" d="M 419.5,162.5 C 419.616,165.86 419.949,169.193 420.5,172.5C 418.469,169.292 418.135,165.959 419.5,162.5 Z"/></g>
<g><path style="opacity:1" fill="#dfa9a1" d="M 429.5,345.5 C 430.407,347.657 431.073,349.99 431.5,352.5C 430.883,352.389 430.383,352.056 430,351.5C 429.505,349.527 429.338,347.527 429.5,345.5 Z"/></g>
<g><path style="opacity:0.997" fill="#c76a5e" d="M 332.5,500.5 C 313.688,505.799 294.688,509.466 275.5,511.5C 272.833,511.5 270.167,511.5 267.5,511.5C 268.622,504.303 270.455,497.303 273,490.5C 275.913,487.913 279.08,485.746 282.5,484C 284.333,479.5 287.5,476.333 292,474.5C 301.702,456.217 310.536,437.55 318.5,418.5C 318.291,417.914 317.957,417.414 317.5,417C 321.986,409.189 326.319,401.356 330.5,393.5C 332.729,395.099 333.062,397.099 331.5,399.5C 334.067,413.703 335.567,428.036 336,442.5C 336.87,443.108 337.37,443.941 337.5,445C 336.963,446.792 336.63,448.625 336.5,450.5C 337.406,459.397 338.406,468.23 339.5,477C 337.314,480.125 336.981,483.458 338.5,487C 336.203,491.399 334.203,495.899 332.5,500.5 Z"/></g>
<g><path style="opacity:1" fill="#d59189" d="M 398.5,452.5 C 398.613,457.518 398.947,462.518 399.5,467.5C 399.5,468.167 399.167,468.5 398.5,468.5C 397.534,463.003 397.534,457.67 398.5,452.5 Z"/></g>
</svg>
