<?xml version="1.0" encoding="UTF-8"?>
<!DOCTYPE svg PUBLIC "-//W3C//DTD SVG 1.1//EN" "http://www.w3.org/Graphics/SVG/1.1/DTD/svg11.dtd">
<svg xmlns="http://www.w3.org/2000/svg" version="1.1" width="512px" height="512px" style="shape-rendering:geometricPrecision; text-rendering:geometricPrecision; image-rendering:optimizeQuality; fill-rule:evenodd; clip-rule:evenodd" xmlns:xlink="http://www.w3.org/1999/xlink">
<g><path style="opacity:0.997" fill="#de707a" d="M 233.5,-0.5 C 247.833,-0.5 262.167,-0.5 276.5,-0.5C 367.96,9.83237 436.46,54.8324 482,134.5C 498.217,165.723 508.05,198.723 511.5,233.5C 511.5,248.167 511.5,262.833 511.5,277.5C 499.445,377.048 448.111,448.214 357.5,491C 331.108,502.106 303.775,508.939 275.5,511.5C 262.167,511.5 248.833,511.5 235.5,511.5C 234.081,510.549 232.415,510.216 230.5,510.5C 232.851,490.927 234.351,471.261 235,451.5C 235.785,449.714 236.951,448.214 238.5,447C 246.028,445.233 253.362,442.9 260.5,440C 261.98,438.701 262.646,437.034 262.5,435C 261.606,429.984 260.106,425.15 258,420.5C 248.75,401.082 240.084,381.416 232,361.5C 231.044,360.421 230.211,359.255 229.5,358C 226.78,357.203 224.28,356.037 222,354.5C 218.667,349.833 215.333,345.167 212,340.5C 209.622,323.269 208.622,305.936 209,288.5C 213.147,292.978 217.647,297.145 222.5,301C 224.956,302.711 227.623,304.044 230.5,305C 238.5,305.667 246.5,305.667 254.5,305C 261.544,302.79 266.544,298.29 269.5,291.5C 269.192,290.692 268.692,290.025 268,289.5C 262.688,291.788 258.855,290.288 256.5,285C 259.126,280.916 261.626,276.75 264,272.5C 276.749,280.243 289.249,288.409 301.5,297C 320.817,302.663 340.15,308.33 359.5,314C 360.523,319.297 362.023,324.464 364,329.5C 366.869,332.886 370.536,334.219 375,333.5C 381.538,333.148 387.038,330.482 391.5,325.5C 395.135,328.138 399.135,328.971 403.5,328C 410.416,325.29 417.249,322.457 424,319.5C 430.873,321.937 437.373,325.104 443.5,329C 445.833,329.667 448.167,329.667 450.5,329C 451.451,328.282 451.617,327.449 451,326.5C 447.799,322.964 444.299,319.797 440.5,317C 440.833,316.667 441.167,316.333 441.5,316C 448.11,318.082 454.943,319.582 462,320.5C 464.264,320.146 466.098,319.146 467.5,317.5C 460.345,313.056 453.012,308.889 445.5,305C 446.09,303.701 447.09,302.868 448.5,302.5C 455.16,301.451 461.16,298.951 466.5,295C 470.82,291.497 470.487,288.997 465.5,287.5C 461.792,288.511 458.126,289.677 454.5,291C 452.272,291.82 450.272,291.487 448.5,290C 450.366,287.931 451.699,285.598 452.5,283C 452.612,281.338 451.946,280.171 450.5,279.5C 439.259,284.12 428.259,289.287 417.5,295C 411.904,296.573 406.238,297.74 400.5,298.5C 397.504,297.185 396.004,294.852 396,291.5C 391.705,286.105 386.205,284.271 379.5,286C 374.66,286.776 370.327,288.609 366.5,291.5C 344.949,282.144 322.949,273.644 300.5,266C 292.333,262.087 284.667,257.42 277.5,252C 274.897,249.906 272.897,247.406 271.5,244.5C 272.711,241.375 274.211,238.375 276,235.5C 294.144,217.238 296.478,196.905 283,174.5C 278.105,166.27 272.438,158.604 266,151.5C 263.883,146.935 262.05,142.269 260.5,137.5C 263.484,135.016 266.318,132.35 269,129.5C 270.59,127.35 271.257,125.017 271,122.5C 264.937,116.76 258.104,112.26 250.5,109C 249.833,108 249.167,107 248.5,106C 250.377,103.749 251.877,101.249 253,98.5C 253.839,91.4333 253.506,84.4333 252,77.5C 246.188,71.4714 240.022,65.6381 233.5,60C 226.802,56.9902 219.802,54.9902 212.5,54C 193.102,53.0376 173.768,53.3709 154.5,55C 148.68,58.4701 145.846,63.6367 146,70.5C 140.268,71.5718 137.435,75.0718 137.5,81C 138.949,85.7476 139.949,90.5809 140.5,95.5C 133.037,96.0472 125.87,97.7139 119,100.5C 119.212,106.351 120.545,112.018 123,117.5C 125.647,121.069 128.813,124.069 132.5,126.5C 128.134,137.564 122.968,148.231 117,158.5C 115.833,168.813 115.333,179.146 115.5,189.5C 102.623,201.598 95.9568,216.598 95.5,234.5C 92.404,234.065 89.404,233.565 86.5,233C 85.9781,233.561 85.6448,234.228 85.5,235C 88.2269,240.379 92.5602,243.879 98.5,245.5C 104.054,252.55 110.72,258.384 118.5,263C 120.625,266.082 122.625,269.249 124.5,272.5C 123.872,274.258 122.872,275.758 121.5,277C 118.785,277.878 116.451,279.378 114.5,281.5C 109.657,279.907 105.657,277.074 102.5,273C 96.5264,272.339 93.693,275.172 94,281.5C 91.5122,283.743 88.8456,285.743 86,287.5C 85.3947,292.812 83.8947,297.812 81.5,302.5C 83.4705,308.245 85.1372,314.078 86.5,320C 80.9683,333.124 77.3016,346.791 75.5,361C 75.7793,372.954 78.7793,384.121 84.5,394.5C 79.6099,398.723 74.9432,403.39 70.5,408.5C 73.8276,411.658 77.3276,414.658 81,417.5C 80.3683,420.026 80.5349,422.526 81.5,425C 86.6971,426.893 91.8637,428.727 97,430.5C 97.6667,433.5 97.6667,436.5 97,439.5C 94.8974,444.302 93.7308,449.302 93.5,454.5C 38.2632,408.368 6.92988,349.368 -0.5,277.5C -0.5,262.833 -0.5,248.167 -0.5,233.5C 11.9842,133.193 63.9842,61.693 155.5,19C 180.733,8.86011 206.733,2.36011 233.5,-0.5 Z"/></g>
<g><path style="opacity:0.999" fill="#fefefe" d="M 230.5,510.5 C 212.051,508.877 194.051,505.21 176.5,499.5C 173.132,483.459 170.465,467.292 168.5,451C 164.245,450.204 160.079,450.371 156,451.5C 152.432,463.141 148.265,474.474 143.5,485.5C 125.553,477.195 108.886,466.862 93.5,454.5C 93.7308,449.302 94.8974,444.302 97,439.5C 97.6667,436.5 97.6667,433.5 97,430.5C 91.8637,428.727 86.6971,426.893 81.5,425C 80.5349,422.526 80.3683,420.026 81,417.5C 77.3276,414.658 73.8276,411.658 70.5,408.5C 74.9432,403.39 79.6099,398.723 84.5,394.5C 78.7793,384.121 75.7793,372.954 75.5,361C 77.3016,346.791 80.9683,333.124 86.5,320C 85.1372,314.078 83.4705,308.245 81.5,302.5C 83.8947,297.812 85.3947,292.812 86,287.5C 88.8456,285.743 91.5122,283.743 94,281.5C 93.693,275.172 96.5264,272.339 102.5,273C 105.657,277.074 109.657,279.907 114.5,281.5C 116.451,279.378 118.785,277.878 121.5,277C 122.872,275.758 123.872,274.258 124.5,272.5C 122.625,269.249 120.625,266.082 118.5,263C 110.72,258.384 104.054,252.55 98.5,245.5C 92.5602,243.879 88.2269,240.379 85.5,235C 85.6448,234.228 85.9781,233.561 86.5,233C 89.404,233.565 92.404,234.065 95.5,234.5C 95.9568,216.598 102.623,201.598 115.5,189.5C 115.333,179.146 115.833,168.813 117,158.5C 122.968,148.231 128.134,137.564 132.5,126.5C 128.813,124.069 125.647,121.069 123,117.5C 120.545,112.018 119.212,106.351 119,100.5C 125.87,97.7139 133.037,96.0472 140.5,95.5C 139.949,90.5809 138.949,85.7476 137.5,81C 137.435,75.0718 140.268,71.5718 146,70.5C 145.846,63.6367 148.68,58.4701 154.5,55C 173.768,53.3709 193.102,53.0376 212.5,54C 219.802,54.9902 226.802,56.9902 233.5,60C 240.022,65.6381 246.188,71.4714 252,77.5C 253.506,84.4333 253.839,91.4333 253,98.5C 251.877,101.249 250.377,103.749 248.5,106C 249.167,107 249.833,108 250.5,109C 258.104,112.26 264.937,116.76 271,122.5C 271.257,125.017 270.59,127.35 269,129.5C 266.318,132.35 263.484,135.016 260.5,137.5C 262.05,142.269 263.883,146.935 266,151.5C 272.438,158.604 278.105,166.27 283,174.5C 296.478,196.905 294.144,217.238 276,235.5C 274.211,238.375 272.711,241.375 271.5,244.5C 272.897,247.406 274.897,249.906 277.5,252C 284.667,257.42 292.333,262.087 300.5,266C 322.949,273.644 344.949,282.144 366.5,291.5C 370.327,288.609 374.66,286.776 379.5,286C 386.205,284.271 391.705,286.105 396,291.5C 396.004,294.852 397.504,297.185 400.5,298.5C 406.238,297.74 411.904,296.573 417.5,295C 428.259,289.287 439.259,284.12 450.5,279.5C 451.946,280.171 452.612,281.338 452.5,283C 451.699,285.598 450.366,287.931 448.5,290C 450.272,291.487 452.272,291.82 454.5,291C 458.126,289.677 461.792,288.511 465.5,287.5C 470.487,288.997 470.82,291.497 466.5,295C 461.16,298.951 455.16,301.451 448.5,302.5C 447.09,302.868 446.09,303.701 445.5,305C 453.012,308.889 460.345,313.056 467.5,317.5C 466.098,319.146 464.264,320.146 462,320.5C 454.943,319.582 448.11,318.082 441.5,316C 441.167,316.333 440.833,316.667 440.5,317C 444.299,319.797 447.799,322.964 451,326.5C 451.617,327.449 451.451,328.282 450.5,329C 448.167,329.667 445.833,329.667 443.5,329C 437.373,325.104 430.873,321.937 424,319.5C 417.249,322.457 410.416,325.29 403.5,328C 399.135,328.971 395.135,328.138 391.5,325.5C 387.038,330.482 381.538,333.148 375,333.5C 370.536,334.219 366.869,332.886 364,329.5C 362.023,324.464 360.523,319.297 359.5,314C 340.15,308.33 320.817,302.663 301.5,297C 289.249,288.409 276.749,280.243 264,272.5C 261.626,276.75 259.126,280.916 256.5,285C 258.855,290.288 262.688,291.788 268,289.5C 268.692,290.025 269.192,290.692 269.5,291.5C 266.544,298.29 261.544,302.79 254.5,305C 246.5,305.667 238.5,305.667 230.5,305C 227.623,304.044 224.956,302.711 222.5,301C 217.647,297.145 213.147,292.978 209,288.5C 208.622,305.936 209.622,323.269 212,340.5C 215.333,345.167 218.667,349.833 222,354.5C 224.28,356.037 226.78,357.203 229.5,358C 230.211,359.255 231.044,360.421 232,361.5C 240.084,381.416 248.75,401.082 258,420.5C 260.106,425.15 261.606,429.984 262.5,435C 262.646,437.034 261.98,438.701 260.5,440C 253.362,442.9 246.028,445.233 238.5,447C 236.951,448.214 235.785,449.714 235,451.5C 234.351,471.261 232.851,490.927 230.5,510.5 Z"/></g>
<g><path style="opacity:0.992" fill="#de707a" d="M 176.5,499.5 C 164.933,495.984 153.933,491.317 143.5,485.5C 148.265,474.474 152.432,463.141 156,451.5C 160.079,450.371 164.245,450.204 168.5,451C 170.465,467.292 173.132,483.459 176.5,499.5 Z"/></g>
</svg>
